<?xml version="1.0" encoding="UTF-8"?>
<!DOCTYPE svg PUBLIC "-//W3C//DTD SVG 1.1//EN" "http://www.w3.org/Graphics/SVG/1.1/DTD/svg11.dtd">
<svg xmlns="http://www.w3.org/2000/svg" version="1.1" width="500px" height="500px" style="shape-rendering:geometricPrecision; text-rendering:geometricPrecision; image-rendering:optimizeQuality; fill-rule:evenodd; clip-rule:evenodd" xmlns:xlink="http://www.w3.org/1999/xlink">
<g><path style="opacity:0.8" fill="#a4e9ec" d="M 305.5,41.5 C 299.014,41.0811 292.681,41.7477 286.5,43.5C 292.394,38.9721 298.727,38.3054 305.5,41.5 Z"/></g>
<g><path style="opacity:0.796" fill="#a9e7eb" d="M 306.5,41.5 C 308.553,41.4021 310.22,42.0687 311.5,43.5C 309.302,43.8799 307.635,43.2132 306.5,41.5 Z"/></g>
<g><path style="opacity:1" fill="#99e6ec" d="M 311.5,43.5 C 314.888,44.3481 317.221,46.3481 318.5,49.5C 317.078,49.2504 316.078,48.417 315.5,47C 314.207,46.51 312.873,46.3433 311.5,46.5C 311.5,45.5 311.5,44.5 311.5,43.5 Z"/></g>
<g><path style="opacity:1" fill="#4bdde7" d="M 305.5,41.5 C 305.833,41.5 306.167,41.5 306.5,41.5C 307.635,43.2132 309.302,43.8799 311.5,43.5C 311.5,44.5 311.5,45.5 311.5,46.5C 312.873,46.3433 314.207,46.51 315.5,47C 316.078,48.417 317.078,49.2504 318.5,49.5C 320.19,54.2018 321.856,58.8684 323.5,63.5C 323.569,68.6156 322.902,73.6156 321.5,78.5C 321.5,78.8333 321.5,79.1667 321.5,79.5C 319.59,82.4525 318.59,85.7858 318.5,89.5C 317.624,89.3691 316.957,89.7025 316.5,90.5C 315.518,94.6304 313.852,98.4637 311.5,102C 313.107,103.049 313.773,104.549 313.5,106.5C 313.634,108.292 313.301,109.958 312.5,111.5C 310.446,114.008 309.446,117.008 309.5,120.5C 308.25,120.577 307.417,121.244 307,122.5C 306.502,125.482 306.335,128.482 306.5,131.5C 304.59,134.452 303.59,137.786 303.5,141.5C 303.5,142.167 303.5,142.833 303.5,143.5C 302.85,143.196 302.183,142.863 301.5,142.5C 298.369,151.237 296.036,160.237 294.5,169.5C 294.007,171.806 293.674,174.139 293.5,176.5C 289.438,174.916 288.438,176.416 290.5,181C 288.939,186.409 287.939,191.909 287.5,197.5C 286.883,197.611 286.383,197.944 286,198.5C 285.505,200.473 285.338,202.473 285.5,204.5C 284.076,206.515 283.41,208.848 283.5,211.5C 283.5,211.833 283.5,212.167 283.5,212.5C 281.72,213.99 281.054,215.99 281.5,218.5C 280.076,220.515 279.41,222.848 279.5,225.5C 279.142,228.267 278.475,230.933 277.5,233.5C 275.72,234.99 275.054,236.99 275.5,239.5C 274.076,241.515 273.41,243.848 273.5,246.5C 273.5,246.833 273.5,247.167 273.5,247.5C 269.393,250.74 267.726,255.073 268.5,260.5C 268.007,262.806 267.674,265.139 267.5,267.5C 267.768,269.099 267.434,270.432 266.5,271.5C 264.32,274.381 263.32,277.714 263.5,281.5C 260.713,285.671 259.38,290.337 259.5,295.5C 258.076,297.515 257.41,299.848 257.5,302.5C 257.768,304.099 257.434,305.432 256.5,306.5C 255.076,308.515 254.41,310.848 254.5,313.5C 253.504,313.414 252.671,313.748 252,314.5C 251.517,318.467 250.184,322.134 248,325.5C 247.026,330.489 246.192,335.489 245.5,340.5C 245.5,341.833 245.5,343.167 245.5,344.5C 244.076,346.515 243.41,348.848 243.5,351.5C 241.631,353.635 240.964,356.302 241.5,359.5C 240.264,361.611 238.764,363.611 237,365.5C 234.864,378.682 232.031,391.682 228.5,404.5C 228.5,404.833 228.5,405.167 228.5,405.5C 227.13,407.25 226.13,409.25 225.5,411.5C 222.84,416.412 221.173,421.745 220.5,427.5C 219.5,427.5 218.5,427.5 217.5,427.5C 217.714,431.257 216.714,431.924 214.5,429.5C 214.167,429.833 213.833,430.167 213.5,430.5C 214.309,432.071 214.643,433.738 214.5,435.5C 214.158,436.338 213.492,436.672 212.5,436.5C 210.833,436.5 209.167,436.5 207.5,436.5C 207.5,437.5 207.5,438.5 207.5,439.5C 207.167,439.5 206.833,439.5 206.5,439.5C 199.73,439.714 193.063,439.047 186.5,437.5C 185.833,437.5 185.5,437.167 185.5,436.5C 184.5,435.167 183.5,433.833 182.5,432.5C 181.315,429.892 179.648,427.559 177.5,425.5C 177.167,422.333 176.833,419.167 176.5,416C 177.807,406.761 179.474,397.594 181.5,388.5C 181.5,387.167 181.5,385.833 181.5,384.5C 181.5,384.167 181.5,383.833 181.5,383.5C 183.472,380.916 184.472,377.916 184.5,374.5C 185.725,373.848 186.392,372.681 186.5,371C 186.917,368.502 187.251,366.002 187.5,363.5C 187.721,360.933 188.388,358.599 189.5,356.5C 190.924,354.485 191.59,352.152 191.5,349.5C 192.924,347.485 193.59,345.152 193.5,342.5C 194.924,340.485 195.59,338.152 195.5,335.5C 196.924,333.485 197.59,331.152 197.5,328.5C 198.167,327.5 198.833,326.5 199.5,325.5C 200.315,324.571 201.148,323.571 202,322.5C 202.483,323.448 202.649,324.448 202.5,325.5C 203.5,325.5 204.5,325.5 205.5,325.5C 205.5,323.5 205.5,321.5 205.5,319.5C 204.325,319.719 203.325,319.386 202.5,318.5C 205.254,310.695 207.587,302.695 209.5,294.5C 210.086,294.709 210.586,295.043 211,295.5C 212.399,292.637 213.399,289.637 214,286.5C 215.205,287.071 216.372,287.738 217.5,288.5C 215.844,293.965 213.177,298.798 209.5,303C 210.833,303.667 212.167,303.667 213.5,303C 214.667,300.5 216.5,298.667 219,297.5C 219.212,294.242 219.712,291.076 220.5,288C 214.841,280.078 214.341,271.912 219,263.5C 219.497,260.854 219.664,258.187 219.5,255.5C 219.5,254.167 219.5,252.833 219.5,251.5C 219.858,248.733 220.525,246.067 221.5,243.5C 223.074,241.898 223.741,239.898 223.5,237.5C 224.924,235.485 225.59,233.152 225.5,230.5C 225.5,230.167 225.5,229.833 225.5,229.5C 227.074,227.898 227.741,225.898 227.5,223.5C 228.924,221.485 229.59,219.152 229.5,216.5C 230.924,214.485 231.59,212.152 231.5,209.5C 233.277,206.495 234.277,203.162 234.5,199.5C 234.232,197.901 234.566,196.568 235.5,195.5C 236.924,193.485 237.59,191.152 237.5,188.5C 237.366,186.708 237.699,185.042 238.5,183.5C 240.472,180.916 241.472,177.916 241.5,174.5C 242.924,172.485 243.59,170.152 243.5,167.5C 246.097,163.357 247.43,158.69 247.5,153.5C 248.924,151.485 249.59,149.152 249.5,146.5C 250.924,144.485 251.59,142.152 251.5,139.5C 253.163,137.562 253.829,135.228 253.5,132.5C 253.5,132.167 253.5,131.833 253.5,131.5C 255.074,129.898 255.741,127.898 255.5,125.5C 256.924,123.485 257.59,121.152 257.5,118.5C 258.924,116.485 259.59,114.152 259.5,111.5C 259.232,109.901 259.566,108.568 260.5,107.5C 262.277,104.495 263.277,101.162 263.5,97.5C 264.151,96.9094 264.818,96.2427 265.5,95.5C 266.494,91.5475 267.16,87.5475 267.5,83.5C 268.978,82.0301 270.311,80.3634 271.5,78.5C 272.494,74.5475 273.16,70.5475 273.5,66.5C 273.5,65.1667 273.5,63.8333 273.5,62.5C 274.924,60.4855 275.59,58.1522 275.5,55.5C 276.906,55.0269 277.573,54.0269 277.5,52.5C 279.199,52.6602 280.866,52.4935 282.5,52C 282.919,48.6919 284.252,45.8586 286.5,43.5C 292.681,41.7477 299.014,41.0811 305.5,41.5 Z"/></g>
<g><path style="opacity:1" fill="#71dfe6" d="M 286.5,43.5 C 284.252,45.8586 282.919,48.6919 282.5,52C 280.866,52.4935 279.199,52.6602 277.5,52.5C 279.5,48.5 282.5,45.5 286.5,43.5 Z"/></g>
<g><path style="opacity:1" fill="#87e3e4" d="M 318.5,49.5 C 321.707,52.7679 323.373,56.7679 323.5,61.5C 323.5,62.1667 323.5,62.8333 323.5,63.5C 321.856,58.8684 320.19,54.2018 318.5,49.5 Z"/></g>
<g><path style="opacity:0.333" fill="#b4f5f3" d="M 277.5,52.5 C 277.573,54.0269 276.906,55.0269 275.5,55.5C 275.427,53.9731 276.094,52.9731 277.5,52.5 Z"/></g>
<g><path style="opacity:0.812" fill="#abedef" d="M 275.5,55.5 C 275.59,58.1522 274.924,60.4855 273.5,62.5C 273.41,59.8478 274.076,57.5145 275.5,55.5 Z"/></g>
<g><path style="opacity:0.765" fill="#aeeef5" d="M 273.5,62.5 C 273.5,63.8333 273.5,65.1667 273.5,66.5C 272.833,67.5 272.167,68.5 271.5,69.5C 271.41,66.8478 272.076,64.5145 273.5,62.5 Z"/></g>
<g><path style="opacity:0.424" fill="#c0f8f8" d="M 323.5,61.5 C 325.114,67.3988 324.448,73.0655 321.5,78.5C 322.902,73.6156 323.569,68.6156 323.5,63.5C 323.5,62.8333 323.5,62.1667 323.5,61.5 Z"/></g>
<g><path style="opacity:1" fill="#74dde4" d="M 273.5,66.5 C 273.16,70.5475 272.494,74.5475 271.5,78.5C 270.311,80.3634 268.978,82.0301 267.5,83.5C 268.259,78.5695 269.592,73.9029 271.5,69.5C 272.167,68.5 272.833,67.5 273.5,66.5 Z"/></g>
<g><path style="opacity:0.51" fill="#b6f5f4" d="M 321.5,79.5 C 321.101,83.1165 320.101,86.4498 318.5,89.5C 318.59,85.7858 319.59,82.4525 321.5,79.5 Z"/></g>
<g><path style="opacity:1" fill="#91e6eb" d="M 267.5,83.5 C 267.16,87.5475 266.494,91.5475 265.5,95.5C 264.818,96.2427 264.151,96.9094 263.5,97.5C 263.92,92.4713 265.254,87.8047 267.5,83.5 Z"/></g>
<g><path style="opacity:1" fill="#81e3e7" d="M 318.5,89.5 C 317.406,95.439 315.739,101.106 313.5,106.5C 313.773,104.549 313.107,103.049 311.5,102C 313.852,98.4637 315.518,94.6304 316.5,90.5C 316.957,89.7025 317.624,89.3691 318.5,89.5 Z"/></g>
<g><path style="opacity:0.804" fill="#b2f0f4" d="M 263.5,97.5 C 263.277,101.162 262.277,104.495 260.5,107.5C 260.723,103.838 261.723,100.505 263.5,97.5 Z"/></g>
<g><path style="opacity:0.714" fill="#b2f1f3" d="M 312.5,111.5 C 311.946,114.746 310.946,117.746 309.5,120.5C 309.446,117.008 310.446,114.008 312.5,111.5 Z"/></g>
<g><path style="opacity:0.78" fill="#afeef5" d="M 259.5,111.5 C 259.59,114.152 258.924,116.485 257.5,118.5C 257.41,115.848 258.076,113.515 259.5,111.5 Z"/></g>
<g><path style="opacity:0.816" fill="#b0eef5" d="M 257.5,118.5 C 257.59,121.152 256.924,123.485 255.5,125.5C 255.41,122.848 256.076,120.515 257.5,118.5 Z"/></g>
<g><path style="opacity:1" fill="#8de6eb" d="M 309.5,120.5 C 309.074,124.427 308.074,128.093 306.5,131.5C 306.335,128.482 306.502,125.482 307,122.5C 307.417,121.244 308.25,120.577 309.5,120.5 Z"/></g>
<g><path style="opacity:0.169" fill="#b6f8fb" d="M 392.5,128.5 C 387.463,128.413 382.463,128.746 377.5,129.5C 380.186,128.009 383.186,127.343 386.5,127.5C 388.696,127.505 390.696,127.838 392.5,128.5 Z"/></g>
<g><path style="opacity:0.769" fill="#b3eef9" d="M 255.5,125.5 C 255.741,127.898 255.074,129.898 253.5,131.5C 253.595,129.214 254.262,127.214 255.5,125.5 Z"/></g>
<g><path style="opacity:1" fill="#8ce4e9" d="M 129.5,135.5 C 125.912,134.521 122.579,133.188 119.5,131.5C 116.42,130.217 113.086,129.55 109.5,129.5C 106.795,129.316 104.462,129.983 102.5,131.5C 101.167,131.5 99.8333,131.5 98.5,131.5C 107.797,126.049 117.13,126.215 126.5,132C 127.71,133.039 128.71,134.206 129.5,135.5 Z"/></g>
<g><path style="opacity:1" fill="#4bdfe0" d="M 119.5,131.5 C 117.174,132.151 114.841,132.818 112.5,133.5C 109.399,131.981 106.066,131.315 102.5,131.5C 104.462,129.983 106.795,129.316 109.5,129.5C 113.086,129.55 116.42,130.217 119.5,131.5 Z"/></g>
<g><path style="opacity:0.824" fill="#a9eff0" d="M 376.5,129.5 C 374.853,131.326 372.853,132.66 370.5,133.5C 371.802,131.178 373.802,129.845 376.5,129.5 Z"/></g>
<g><path style="opacity:1" fill="#51dce9" d="M 98.5,131.5 C 99.8333,131.5 101.167,131.5 102.5,131.5C 106.066,131.315 109.399,131.981 112.5,133.5C 114.841,132.818 117.174,132.151 119.5,131.5C 122.579,133.188 125.912,134.521 129.5,135.5C 130.833,136.167 131.833,137.167 132.5,138.5C 132.427,140.027 133.094,141.027 134.5,141.5C 135.434,142.568 135.768,143.901 135.5,145.5C 135.5,146.833 135.5,148.167 135.5,149.5C 132.611,146.509 131.278,142.842 131.5,138.5C 126.391,139.947 121.558,141.947 117,144.5C 114.217,143.114 114.05,141.614 116.5,140C 118.81,139.503 121.143,139.337 123.5,139.5C 123.825,136.476 122.492,134.809 119.5,134.5C 116.328,135.508 113.328,136.842 110.5,138.5C 108.369,137.037 106.035,136.037 103.5,135.5C 101.488,135.84 99.4878,136.173 97.5,136.5C 96.3161,139.375 94.6494,142.042 92.5,144.5C 90.7869,144.121 89.7869,143.121 89.5,141.5C 92.0595,138.542 95.0595,136.042 98.5,134C 97.4019,133.23 97.4019,132.397 98.5,131.5 Z"/></g>
<g><path style="opacity:0.647" fill="#aaf0f3" d="M 306.5,131.5 C 306.101,135.116 305.101,138.45 303.5,141.5C 303.59,137.786 304.59,134.452 306.5,131.5 Z"/></g>
<g><path style="opacity:0.596" fill="#bdf1f5" d="M 403.5,133.5 C 406.5,135.833 409.167,138.5 411.5,141.5C 407.833,139.833 405.167,137.167 403.5,133.5 Z"/></g>
<g><path style="opacity:0.941" fill="#a1eaee" d="M 253.5,132.5 C 253.829,135.228 253.163,137.562 251.5,139.5C 251.41,136.848 252.076,134.515 253.5,132.5 Z"/></g>
<g><path style="opacity:1" fill="#4bdde7" d="M 392.5,128.5 C 396.548,129.358 400.215,131.025 403.5,133.5C 405.167,137.167 407.833,139.833 411.5,141.5C 413.427,144.767 415.761,147.767 418.5,150.5C 417.221,154.933 418.888,157.933 423.5,159.5C 424.308,163.975 426.974,166.308 431.5,166.5C 432.989,170.433 435.656,173.433 439.5,175.5C 440.348,180.02 443.015,182.353 447.5,182.5C 448.989,186.433 451.656,189.433 455.5,191.5C 456.081,196.22 458.748,198.554 463.5,198.5C 464.989,202.433 467.656,205.433 471.5,207.5C 472.348,212.02 475.015,214.353 479.5,214.5C 479.659,217.654 480.993,220.154 483.5,222C 482.544,225.394 482.211,228.894 482.5,232.5C 483.552,232.351 484.552,232.517 485.5,233C 486.305,234.972 487.639,236.472 489.5,237.5C 490.587,234.599 489.754,232.266 487,230.5C 486.503,228.19 486.337,225.857 486.5,223.5C 489.775,224.614 491.942,226.947 493,230.5C 494.113,231.305 495.279,231.972 496.5,232.5C 497.222,232.918 497.722,233.584 498,234.5C 499.43,240.739 498.43,246.406 495,251.5C 494.51,252.793 494.343,254.127 494.5,255.5C 492.738,256.262 491.738,257.596 491.5,259.5C 490.504,259.414 489.671,259.748 489,260.5C 487.667,257.833 486.333,257.833 485,260.5C 484.51,261.793 484.343,263.127 484.5,264.5C 483.5,264.5 482.5,264.5 481.5,264.5C 481.719,265.675 481.386,266.675 480.5,267.5C 479.146,265.816 477.479,265.316 475.5,266C 476.624,266.249 477.624,266.749 478.5,267.5C 477.205,269.328 476.205,271.328 475.5,273.5C 473.055,272.035 471.055,272.535 469.5,275C 470.167,275.333 470.833,275.667 471.5,276C 467.246,277.105 465.58,279.939 466.5,284.5C 464.887,284.056 463.72,283.056 463,281.5C 462.716,283.886 461.716,284.552 460,283.5C 458.166,286.438 456.666,289.438 455.5,292.5C 454.07,292.421 452.736,292.754 451.5,293.5C 450.289,294.274 450.289,295.107 451.5,296C 450.552,296.483 449.552,296.649 448.5,296.5C 448.649,297.552 448.483,298.552 448,299.5C 446.951,298.483 445.784,298.316 444.5,299C 446.192,300.401 446.859,302.234 446.5,304.5C 445.735,304.077 444.902,303.743 444,303.5C 442.902,304.384 442.402,305.384 442.5,306.5C 441.522,306.023 440.689,305.357 440,304.5C 439.112,307.719 437.945,310.386 436.5,312.5C 434.857,312.48 433.524,313.147 432.5,314.5C 431.914,314.291 431.414,313.957 431,313.5C 429.624,316.053 428.457,318.72 427.5,321.5C 425.055,320.035 423.055,320.535 421.5,323C 423.932,324.087 423.598,324.587 420.5,324.5C 420.5,325.5 420.5,326.5 420.5,327.5C 419.5,327.5 418.5,327.5 417.5,327.5C 417.646,329.942 416.813,330.609 415,329.5C 414.505,331.473 414.338,333.473 414.5,335.5C 411.512,335.329 409.512,336.662 408.5,339.5C 406.244,337.244 405.577,337.744 406.5,341C 406.389,342.722 405.889,342.888 405,341.5C 404.506,343.134 404.34,344.801 404.5,346.5C 404.5,347.167 404.167,347.5 403.5,347.5C 401.011,347.241 399.344,348.241 398.5,350.5C 396.447,350.402 394.78,351.069 393.5,352.5C 393.167,352.5 392.833,352.5 392.5,352.5C 387.463,352.587 382.463,352.254 377.5,351.5C 376.391,351.443 375.391,351.11 374.5,350.5C 373.415,348.413 371.749,347.08 369.5,346.5C 367.413,345.415 366.08,343.749 365.5,341.5C 365.573,339.973 364.906,338.973 363.5,338.5C 360.877,334.039 360.211,329.372 361.5,324.5C 363.31,321.855 364.31,318.855 364.5,315.5C 368.234,312.769 371.234,309.436 373.5,305.5C 376.142,305.512 377.475,304.179 377.5,301.5C 379.167,299.167 381.167,297.167 383.5,295.5C 386.393,293.886 389.393,292.553 392.5,291.5C 392.343,290.127 392.51,288.793 393,287.5C 395.782,285.229 397.949,282.563 399.5,279.5C 400.833,277.5 402.5,275.833 404.5,274.5C 405.833,273.833 406.833,272.833 407.5,271.5C 417.465,262.036 427.298,252.369 437,242.5C 437.667,241.167 437.667,239.833 437,238.5C 434.234,235.223 431.067,232.557 427.5,230.5C 423.167,224.167 417.833,218.833 411.5,214.5C 411.167,212.167 409.833,210.833 407.5,210.5C 407.5,208.5 406.5,207.5 404.5,207.5C 396.833,199.5 389.167,191.5 381.5,183.5C 379.22,179.868 376.886,176.202 374.5,172.5C 372.27,171.217 369.937,170.217 367.5,169.5C 366.761,165.914 365.094,162.914 362.5,160.5C 362.36,154.464 362.693,148.464 363.5,142.5C 364.906,142.027 365.573,141.027 365.5,139.5C 366.419,136.911 368.086,134.911 370.5,133.5C 372.853,132.66 374.853,131.326 376.5,129.5C 376.833,129.5 377.167,129.5 377.5,129.5C 382.463,128.746 387.463,128.413 392.5,128.5 Z"/></g>
<g><path style="opacity:0.255" fill="#caf9fa" d="M 132.5,138.5 C 133.906,138.973 134.573,139.973 134.5,141.5C 133.094,141.027 132.427,140.027 132.5,138.5 Z"/></g>
<g><path style="opacity:1" fill="#4bdee7" d="M 135.5,149.5 C 135.5,153.167 135.5,156.833 135.5,160.5C 134.233,159.913 133.233,159.913 132.5,160.5C 133.309,162.071 133.643,163.738 133.5,165.5C 132.85,165.196 132.183,164.863 131.5,164.5C 129.917,166.99 128.917,169.657 128.5,172.5C 127.167,172.5 125.833,172.5 124.5,172.5C 124.5,173.5 124.5,174.5 124.5,175.5C 122.396,175.201 120.396,175.534 118.5,176.5C 119.246,177.736 119.579,179.07 119.5,180.5C 118.5,180.5 117.5,180.5 116.5,180.5C 116.371,182.216 116.038,183.883 115.5,185.5C 114.833,186.833 113.833,187.833 112.5,188.5C 111.167,188.5 109.833,188.5 108.5,188.5C 107.957,191.038 106.957,193.372 105.5,195.5C 103.883,196.038 102.216,196.371 100.5,196.5C 100.371,198.216 100.038,199.883 99.5,201.5C 98.1667,201.5 97.5,202.167 97.5,203.5C 95.8828,204.038 94.2161,204.371 92.5,204.5C 92.5,205.5 92.5,206.5 92.5,207.5C 90.5,207.5 88.5,207.5 86.5,207.5C 85.6259,211.36 84.2925,215.026 82.5,218.5C 82.1667,219.5 81.5,220.167 80.5,220.5C 76.1661,221.075 73.3327,223.408 72,227.5C 70.6667,226.833 69.3333,226.167 68,225.5C 67.8333,225.833 67.6667,226.167 67.5,226.5C 68.376,227.251 69.376,227.751 70.5,228C 68.4748,229.677 66.1415,230.677 63.5,231C 64.3802,232.356 64.7135,233.856 64.5,235.5C 59.7871,235.468 58.2871,237.801 60,242.5C 62.1281,244.807 64.6281,246.474 67.5,247.5C 68.7452,250.009 69.7452,252.675 70.5,255.5C 71.7362,254.754 73.0695,254.421 74.5,254.5C 75.1667,257.167 76.8333,258.833 79.5,259.5C 79.8333,261.833 81.1667,263.167 83.5,263.5C 83.5246,266.179 84.858,267.512 87.5,267.5C 87.8333,269.833 89.1667,271.167 91.5,271.5C 95.8333,277.833 101.167,283.167 107.5,287.5C 111.833,293.833 117.167,299.167 123.5,303.5C 125.766,307.436 128.766,310.769 132.5,313.5C 132.427,315.027 133.094,316.027 134.5,316.5C 134.5,316.833 134.5,317.167 134.5,317.5C 134.666,323.842 134.5,330.175 134,336.5C 133.333,335.833 132.667,335.167 132,334.5C 129.715,338.187 128.548,342.187 128.5,346.5C 124.564,347.688 120.898,349.355 117.5,351.5C 112.987,352.597 108.321,352.597 103.5,351.5C 101.447,351.598 99.7804,350.931 98.5,349.5C 98.0269,348.094 97.0269,347.427 95.5,347.5C 92.5,345.167 89.8333,342.5 87.5,339.5C 86.2156,336.861 84.8823,334.195 83.5,331.5C 80.7997,330.108 78.1331,328.775 75.5,327.5C 68.5,321.167 61.8333,314.5 55.5,307.5C 56.2389,307.631 56.9056,307.464 57.5,307C 55.8789,302.25 53.3789,298.083 50,294.5C 49.2797,292.888 49.4464,291.388 50.5,290C 47.6517,289.724 45.485,290.891 44,293.5C 41.1959,290.312 39.0293,286.646 37.5,282.5C 34.8858,279.594 31.5524,277.927 27.5,277.5C 25.276,274.847 23.6094,271.847 22.5,268.5C 16.4807,266.645 15.1474,263.145 18.5,258C 16.8659,257.506 15.1992,257.34 13.5,257.5C 13.7475,259.858 13.0808,261.858 11.5,263.5C 6.76395,259.767 2.76395,255.434 -0.5,250.5C -0.5,244.5 -0.5,238.5 -0.5,232.5C 0.5,232.5 1.5,232.5 2.5,232.5C 2.70356,230.315 3.37023,228.315 4.5,226.5C 4.5,225.833 4.5,225.167 4.5,224.5C 5.16667,223.167 6.16667,222.167 7.5,221.5C 12.1667,218.833 15.8333,215.167 18.5,210.5C 19.1667,209.167 20.1667,208.167 21.5,207.5C 25.1667,205.833 27.8333,203.167 29.5,199.5C 37.1667,191.167 45.1667,183.167 53.5,175.5C 57.1667,173.833 59.8333,171.167 61.5,167.5C 66.5,161.833 71.8333,156.5 77.5,151.5C 81.7728,148.566 85.7728,145.233 89.5,141.5C 89.7869,143.121 90.7869,144.121 92.5,144.5C 94.6494,142.042 96.3161,139.375 97.5,136.5C 99.4878,136.173 101.488,135.84 103.5,135.5C 106.035,136.037 108.369,137.037 110.5,138.5C 113.328,136.842 116.328,135.508 119.5,134.5C 122.492,134.809 123.825,136.476 123.5,139.5C 121.143,139.337 118.81,139.503 116.5,140C 114.05,141.614 114.217,143.114 117,144.5C 121.558,141.947 126.391,139.947 131.5,138.5C 131.278,142.842 132.611,146.509 135.5,149.5 Z"/></g>
<g><path style="opacity:0.404" fill="#b2f0f7" d="M 365.5,139.5 C 365.573,141.027 364.906,142.027 363.5,142.5C 363.427,140.973 364.094,139.973 365.5,139.5 Z"/></g>
<g><path style="opacity:0.761" fill="#aaf2ef" d="M 251.5,139.5 C 251.59,142.152 250.924,144.485 249.5,146.5C 249.41,143.848 250.076,141.515 251.5,139.5 Z"/></g>
<g><path style="opacity:0.608" fill="#bcf1f6" d="M 411.5,141.5 C 439.55,168.55 466.884,196.216 493.5,224.5C 468.5,199.833 443.5,175.167 418.5,150.5C 415.761,147.767 413.427,144.767 411.5,141.5 Z"/></g>
<g><path style="opacity:0.957" fill="#84dde5" d="M 98.5,131.5 C 97.4019,132.397 97.4019,133.23 98.5,134C 95.0595,136.042 92.0595,138.542 89.5,141.5C 85.7728,145.233 81.7728,148.566 77.5,151.5C 83.8886,144.109 90.8886,137.443 98.5,131.5 Z"/></g>
<g><path style="opacity:0.82" fill="#a8f1f3" d="M 249.5,146.5 C 249.59,149.152 248.924,151.485 247.5,153.5C 247.41,150.848 248.076,148.515 249.5,146.5 Z"/></g>
<g><path style="opacity:0.776" fill="#a8f1f0" d="M 363.5,142.5 C 362.693,148.464 362.36,154.464 362.5,160.5C 359.8,154.375 360.134,148.375 363.5,142.5 Z"/></g>
<g><path style="opacity:0.888" fill="#a2e9e9" d="M 135.5,145.5 C 138.167,150.5 138.167,155.5 135.5,160.5C 135.5,156.833 135.5,153.167 135.5,149.5C 135.5,148.167 135.5,146.833 135.5,145.5 Z"/></g>
<g><path style="opacity:1" fill="#86e2e8" d="M 303.5,143.5 C 301.124,152.359 298.457,161.026 295.5,169.5C 295.167,169.5 294.833,169.5 294.5,169.5C 296.036,160.237 298.369,151.237 301.5,142.5C 302.183,142.863 302.85,143.196 303.5,143.5 Z"/></g>
<g><path style="opacity:1" fill="#8ee3ea" d="M 135.5,160.5 C 135.598,162.553 134.931,164.22 133.5,165.5C 133.643,163.738 133.309,162.071 132.5,160.5C 133.233,159.913 134.233,159.913 135.5,160.5 Z"/></g>
<g><path style="opacity:1" fill="#9ceaec" d="M 362.5,160.5 C 365.094,162.914 366.761,165.914 367.5,169.5C 364.595,167.244 362.928,164.244 362.5,160.5 Z"/></g>
<g><path style="opacity:0.792" fill="#9eebef" d="M 247.5,153.5 C 247.43,158.69 246.097,163.357 243.5,167.5C 244.231,162.562 245.565,157.895 247.5,153.5 Z"/></g>
<g><path style="opacity:1" fill="#93e4e8" d="M 133.5,165.5 C 132.567,168.37 130.9,170.704 128.5,172.5C 128.917,169.657 129.917,166.99 131.5,164.5C 132.183,164.863 132.85,165.196 133.5,165.5 Z"/></g>
<g><path style="opacity:0.808" fill="#a7edf3" d="M 243.5,167.5 C 243.59,170.152 242.924,172.485 241.5,174.5C 241.41,171.848 242.076,169.515 243.5,167.5 Z"/></g>
<g><path style="opacity:0.953" fill="#85dde5" d="M 61.5,167.5 C 59.8333,171.167 57.1667,173.833 53.5,175.5C 55.8333,172.5 58.5,169.833 61.5,167.5 Z"/></g>
<g><path style="opacity:1" fill="#75dde4" d="M 367.5,169.5 C 369.937,170.217 372.27,171.217 374.5,172.5C 376.886,176.202 379.22,179.868 381.5,183.5C 376.36,179.272 371.694,174.605 367.5,169.5 Z"/></g>
<g><path style="opacity:0.533" fill="#aff6f6" d="M 294.5,169.5 C 294.833,169.5 295.167,169.5 295.5,169.5C 295.59,172.152 294.924,174.485 293.5,176.5C 293.674,174.139 294.007,171.806 294.5,169.5 Z"/></g>
<g><path style="opacity:1" fill="#8fe4ea" d="M 128.5,172.5 C 124.5,177.167 120.167,181.5 115.5,185.5C 116.038,183.883 116.371,182.216 116.5,180.5C 117.5,180.5 118.5,180.5 119.5,180.5C 119.579,179.07 119.246,177.736 118.5,176.5C 120.396,175.534 122.396,175.201 124.5,175.5C 124.5,174.5 124.5,173.5 124.5,172.5C 125.833,172.5 127.167,172.5 128.5,172.5 Z"/></g>
<g><path style="opacity:1" fill="#8ce5ec" d="M 293.5,176.5 C 292.258,183.817 290.258,190.817 287.5,197.5C 287.939,191.909 288.939,186.409 290.5,181C 288.438,176.416 289.438,174.916 293.5,176.5 Z"/></g>
<g><path style="opacity:0.773" fill="#b8f2f6" d="M 241.5,174.5 C 241.472,177.916 240.472,180.916 238.5,183.5C 238.928,180.215 239.928,177.215 241.5,174.5 Z"/></g>
<g><path style="opacity:0.98" fill="#a5eaef" d="M 112.5,188.5 C 110.5,191.167 108.167,193.5 105.5,195.5C 106.957,193.372 107.957,191.038 108.5,188.5C 109.833,188.5 111.167,188.5 112.5,188.5 Z"/></g>
<g><path style="opacity:1" fill="#4edde3" d="M 418.5,150.5 C 443.5,175.167 468.5,199.833 493.5,224.5C 493.572,227.553 494.572,230.219 496.5,232.5C 495.279,231.972 494.113,231.305 493,230.5C 491.942,226.947 489.775,224.614 486.5,223.5C 486.337,225.857 486.503,228.19 487,230.5C 489.754,232.266 490.587,234.599 489.5,237.5C 487.639,236.472 486.305,234.972 485.5,233C 484.552,232.517 483.552,232.351 482.5,232.5C 482.211,228.894 482.544,225.394 483.5,222C 480.993,220.154 479.659,217.654 479.5,214.5C 475.015,214.353 472.348,212.02 471.5,207.5C 467.656,205.433 464.989,202.433 463.5,198.5C 458.748,198.554 456.081,196.22 455.5,191.5C 451.656,189.433 448.989,186.433 447.5,182.5C 443.015,182.353 440.348,180.02 439.5,175.5C 435.656,173.433 432.989,170.433 431.5,166.5C 426.974,166.308 424.308,163.975 423.5,159.5C 418.888,157.933 417.221,154.933 418.5,150.5 Z"/></g>
<g><path style="opacity:0.753" fill="#abedef" d="M 237.5,188.5 C 237.59,191.152 236.924,193.485 235.5,195.5C 235.41,192.848 236.076,190.515 237.5,188.5 Z"/></g>
<g><path style="opacity:0.98" fill="#a9e9ef" d="M 105.5,195.5 C 103.833,197.833 101.833,199.833 99.5,201.5C 100.038,199.883 100.371,198.216 100.5,196.5C 102.216,196.371 103.883,196.038 105.5,195.5 Z"/></g>
<g><path style="opacity:0.902" fill="#9deaee" d="M 287.5,197.5 C 287.59,200.152 286.924,202.485 285.5,204.5C 285.338,202.473 285.505,200.473 286,198.5C 286.383,197.944 286.883,197.611 287.5,197.5 Z"/></g>
<g><path style="opacity:0.051" fill="#caf7f9" d="M 99.5,201.5 C 99.1667,202.5 98.5,203.167 97.5,203.5C 97.5,202.167 98.1667,201.5 99.5,201.5 Z"/></g>
<g><path style="opacity:0.953" fill="#84dce4" d="M 29.5,199.5 C 27.8333,203.167 25.1667,205.833 21.5,207.5C 23.8333,204.5 26.5,201.833 29.5,199.5 Z"/></g>
<g><path style="opacity:0.761" fill="#a6edf3" d="M 234.5,199.5 C 234.277,203.162 233.277,206.495 231.5,209.5C 231.723,205.838 232.723,202.505 234.5,199.5 Z"/></g>
<g><path style="opacity:0.035" fill="#c2f8f8" d="M 285.5,204.5 C 285.59,207.152 284.924,209.485 283.5,211.5C 283.41,208.848 284.076,206.515 285.5,204.5 Z"/></g>
<g><path style="opacity:0.49" fill="#d4f8fa" d="M 404.5,207.5 C 406.5,207.5 407.5,208.5 407.5,210.5C 406.167,209.833 405.167,208.833 404.5,207.5 Z"/></g>
<g><path style="opacity:1" fill="#88e3e9" d="M 97.5,203.5 C 92.8333,208.833 87.8333,213.833 82.5,218.5C 84.2925,215.026 85.6259,211.36 86.5,207.5C 88.5,207.5 90.5,207.5 92.5,207.5C 92.5,206.5 92.5,205.5 92.5,204.5C 94.2161,204.371 95.8828,204.038 97.5,203.5 Z"/></g>
<g><path style="opacity:0.808" fill="#aeedf2" d="M 231.5,209.5 C 231.59,212.152 230.924,214.485 229.5,216.5C 229.41,213.848 230.076,211.515 231.5,209.5 Z"/></g>
<g><path style="opacity:0.02" fill="#caf7f9" d="M 407.5,210.5 C 409.833,210.833 411.167,212.167 411.5,214.5C 409.833,213.5 408.5,212.167 407.5,210.5 Z"/></g>
<g><path style="opacity:0.796" fill="#a8edef" d="M 283.5,212.5 C 283.405,214.786 282.738,216.786 281.5,218.5C 281.054,215.99 281.72,213.99 283.5,212.5 Z"/></g>
<g><path style="opacity:0.549" fill="#baf4f8" d="M 411.5,214.5 C 417.833,218.833 423.167,224.167 427.5,230.5C 421.833,225.5 416.5,220.167 411.5,214.5 Z"/></g>
<g><path style="opacity:0.957" fill="#84dde5" d="M 18.5,210.5 C 15.8333,215.167 12.1667,218.833 7.5,221.5C 10.8333,217.5 14.5,213.833 18.5,210.5 Z"/></g>
<g><path style="opacity:0.78" fill="#acf0f2" d="M 229.5,216.5 C 229.59,219.152 228.924,221.485 227.5,223.5C 227.41,220.848 228.076,218.515 229.5,216.5 Z"/></g>
<g><path style="opacity:0.031" fill="#c3f8fb" d="M 281.5,218.5 C 281.59,221.152 280.924,223.485 279.5,225.5C 279.41,222.848 280.076,220.515 281.5,218.5 Z"/></g>
<g><path style="opacity:0.553" fill="#aef1f4" d="M 4.5,224.5 C 4.5,225.167 4.5,225.833 4.5,226.5C 3.83333,226.833 3.16667,227.167 2.5,227.5C 2.42702,225.973 3.09368,224.973 4.5,224.5 Z"/></g>
<g><path style="opacity:0.788" fill="#b0eef5" d="M 227.5,223.5 C 227.741,225.898 227.074,227.898 225.5,229.5C 225.595,227.214 226.262,225.214 227.5,223.5 Z"/></g>
<g><path style="opacity:1" fill="#85e4e9" d="M 493.5,224.5 C 495.987,226.809 497.987,229.476 499.5,232.5C 499.5,237.833 499.5,243.167 499.5,248.5C 498.079,251.009 496.412,253.343 494.5,255.5C 494.343,254.127 494.51,252.793 495,251.5C 498.43,246.406 499.43,240.739 498,234.5C 497.722,233.584 497.222,232.918 496.5,232.5C 494.572,230.219 493.572,227.553 493.5,224.5 Z"/></g>
<g><path style="opacity:1" fill="#7be1e3" d="M 4.5,226.5 C 3.37023,228.315 2.70356,230.315 2.5,232.5C 1.5,232.5 0.5,232.5 -0.5,232.5C -0.5,231.833 -0.5,231.167 -0.5,230.5C 0.271873,229.306 1.27187,228.306 2.5,227.5C 3.16667,227.167 3.83333,226.833 4.5,226.5 Z"/></g>
<g><path style="opacity:1" fill="#7ee3e9" d="M 80.5,220.5 C 74.1882,227.146 67.8549,233.813 61.5,240.5C 63.5227,242.853 65.5227,245.186 67.5,247.5C 64.6281,246.474 62.1281,244.807 60,242.5C 58.2871,237.801 59.7871,235.468 64.5,235.5C 64.7135,233.856 64.3802,232.356 63.5,231C 66.1415,230.677 68.4748,229.677 70.5,228C 69.376,227.751 68.376,227.251 67.5,226.5C 67.6667,226.167 67.8333,225.833 68,225.5C 69.3333,226.167 70.6667,226.833 72,227.5C 73.3327,223.408 76.1661,221.075 80.5,220.5 Z"/></g>
<g><path style="opacity:0.804" fill="#afeef6" d="M 225.5,230.5 C 225.59,233.152 224.924,235.485 223.5,237.5C 223.41,234.848 224.076,232.515 225.5,230.5 Z"/></g>
<g><path style="opacity:0.718" fill="#abedf1" d="M 277.5,233.5 C 277.405,235.786 276.738,237.786 275.5,239.5C 275.054,236.99 275.72,234.99 277.5,233.5 Z"/></g>
<g><path style="opacity:0.765" fill="#b1eff7" d="M 223.5,237.5 C 223.741,239.898 223.074,241.898 221.5,243.5C 221.595,241.214 222.262,239.214 223.5,237.5 Z"/></g>
<g><path style="opacity:0.369" fill="#bff5f8" d="M 275.5,239.5 C 275.59,242.152 274.924,244.485 273.5,246.5C 273.41,243.848 274.076,241.515 275.5,239.5 Z"/></g>
<g><path style="opacity:1" fill="#83e3ea" d="M 273.5,247.5 C 272.612,252.072 271.279,256.405 269.5,260.5C 269.167,260.5 268.833,260.5 268.5,260.5C 267.726,255.073 269.393,250.74 273.5,247.5 Z"/></g>
<g><path style="opacity:1" fill="#7fe4ea" d="M 67.5,247.5 C 70.1667,249.5 72.5,251.833 74.5,254.5C 73.0695,254.421 71.7362,254.754 70.5,255.5C 69.7452,252.675 68.7452,250.009 67.5,247.5 Z"/></g>
<g><path style="opacity:0.757" fill="#a9f2ed" d="M 219.5,251.5 C 219.5,252.833 219.5,254.167 219.5,255.5C 218.833,256.5 218.167,257.5 217.5,258.5C 217.41,255.848 218.076,253.515 219.5,251.5 Z"/></g>
<g><path style="opacity:0.761" fill="#aaeff1" d="M 74.5,254.5 C 76.5,255.833 78.1667,257.5 79.5,259.5C 76.8333,258.833 75.1667,257.167 74.5,254.5 Z"/></g>
<g><path style="opacity:0.063" fill="#c1f7f9" d="M 494.5,255.5 C 494.262,257.404 493.262,258.738 491.5,259.5C 491.738,257.596 492.738,256.262 494.5,255.5 Z"/></g>
<g><path style="opacity:0.729" fill="#b2f0f2" d="M 79.5,259.5 C 81.1667,260.5 82.5,261.833 83.5,263.5C 81.1667,263.167 79.8333,261.833 79.5,259.5 Z"/></g>
<g><path style="opacity:0.58" fill="#b4f2f6" d="M 427.5,230.5 C 431.067,232.557 434.234,235.223 437,238.5C 437.667,239.833 437.667,241.167 437,242.5C 427.298,252.369 417.465,262.036 407.5,271.5C 407.369,270.761 407.536,270.094 408,269.5C 417.681,259.986 427.181,250.319 436.5,240.5C 433.478,237.147 430.478,233.813 427.5,230.5 Z"/></g>
<g><path style="opacity:0.808" fill="#acf1f2" d="M 217.5,258.5 C 217.59,261.152 216.924,263.485 215.5,265.5C 215.41,262.848 216.076,260.515 217.5,258.5 Z"/></g>
<g><path style="opacity:0.016" fill="#b8f7f9" d="M 268.5,260.5 C 268.833,260.5 269.167,260.5 269.5,260.5C 269.59,263.152 268.924,265.485 267.5,267.5C 267.674,265.139 268.007,262.806 268.5,260.5 Z"/></g>
<g><path style="opacity:0.992" fill="#94e7ea" d="M 83.5,263.5 C 85.1667,264.5 86.5,265.833 87.5,267.5C 84.858,267.512 83.5246,266.179 83.5,263.5 Z"/></g>
<g><path style="opacity:0.671" fill="#b7f2f4" d="M 87.5,267.5 C 89.1667,268.5 90.5,269.833 91.5,271.5C 89.1667,271.167 87.8333,269.833 87.5,267.5 Z"/></g>
<g><path style="opacity:1" fill="#5cdde4" d="M 55.5,307.5 C 40.5,293.167 25.8333,278.5 11.5,263.5C 13.0808,261.858 13.7475,259.858 13.5,257.5C 15.1992,257.34 16.8659,257.506 18.5,258C 15.1474,263.145 16.4807,266.645 22.5,268.5C 23.6094,271.847 25.276,274.847 27.5,277.5C 31.5524,277.927 34.8858,279.594 37.5,282.5C 39.0293,286.646 41.1959,290.312 44,293.5C 45.485,290.891 47.6517,289.724 50.5,290C 49.4464,291.388 49.2797,292.888 50,294.5C 53.3789,298.083 55.8789,302.25 57.5,307C 56.9056,307.464 56.2389,307.631 55.5,307.5 Z"/></g>
<g><path style="opacity:0.643" fill="#b6f3f5" d="M 91.5,271.5 C 97.1667,276.5 102.5,281.833 107.5,287.5C 101.167,283.167 95.8333,277.833 91.5,271.5 Z"/></g>
<g><path style="opacity:0.486" fill="#c5f3f8" d="M 407.5,271.5 C 406.833,272.833 405.833,273.833 404.5,274.5C 404.5,272.5 405.5,271.5 407.5,271.5 Z"/></g>
<g><path style="opacity:1" fill="#81e3eb" d="M 491.5,259.5 C 483.5,268.167 475.167,276.5 466.5,284.5C 465.58,279.939 467.246,277.105 471.5,276C 470.833,275.667 470.167,275.333 469.5,275C 471.055,272.535 473.055,272.035 475.5,273.5C 476.205,271.328 477.205,269.328 478.5,267.5C 477.624,266.749 476.624,266.249 475.5,266C 477.479,265.316 479.146,265.816 480.5,267.5C 481.386,266.675 481.719,265.675 481.5,264.5C 482.5,264.5 483.5,264.5 484.5,264.5C 484.343,263.127 484.51,261.793 485,260.5C 486.333,257.833 487.667,257.833 489,260.5C 489.671,259.748 490.504,259.414 491.5,259.5 Z"/></g>
<g><path style="opacity:0.675" fill="#adf0f2" d="M 266.5,271.5 C 266.101,275.116 265.101,278.45 263.5,281.5C 263.32,277.714 264.32,274.381 266.5,271.5 Z"/></g>
<g><path style="opacity:0.792" fill="#9debef" d="M 215.5,265.5 C 215.43,270.69 214.097,275.357 211.5,279.5C 212.231,274.562 213.565,269.895 215.5,265.5 Z"/></g>
<g><path style="opacity:1" fill="#4fdce2" d="M 219.5,255.5 C 219.664,258.187 219.497,260.854 219,263.5C 214.341,271.912 214.841,280.078 220.5,288C 219.712,291.076 219.212,294.242 219,297.5C 216.5,298.667 214.667,300.5 213.5,303C 212.167,303.667 210.833,303.667 209.5,303C 213.177,298.798 215.844,293.965 217.5,288.5C 216.372,287.738 215.205,287.071 214,286.5C 213.399,289.637 212.399,292.637 211,295.5C 210.586,295.043 210.086,294.709 209.5,294.5C 207.587,302.695 205.254,310.695 202.5,318.5C 203.325,319.386 204.325,319.719 205.5,319.5C 205.5,321.5 205.5,323.5 205.5,325.5C 204.5,325.5 203.5,325.5 202.5,325.5C 202.649,324.448 202.483,323.448 202,322.5C 201.148,323.571 200.315,324.571 199.5,325.5C 199.5,324.167 199.5,322.833 199.5,321.5C 200.924,319.485 201.59,317.152 201.5,314.5C 202.924,312.485 203.59,310.152 203.5,307.5C 204.924,305.485 205.59,303.152 205.5,300.5C 206.924,298.485 207.59,296.152 207.5,293.5C 210.287,289.329 211.62,284.663 211.5,279.5C 214.097,275.357 215.43,270.69 215.5,265.5C 216.924,263.485 217.59,261.152 217.5,258.5C 218.167,257.5 218.833,256.5 219.5,255.5 Z"/></g>
<g><path style="opacity:0.604" fill="#b7f3f5" d="M 107.5,287.5 C 113.167,292.5 118.5,297.833 123.5,303.5C 117.167,299.167 111.833,293.833 107.5,287.5 Z"/></g>
<g><path style="opacity:0.765" fill="#a1e9ef" d="M 211.5,279.5 C 211.62,284.663 210.287,289.329 207.5,293.5C 208.231,288.562 209.565,283.895 211.5,279.5 Z"/></g>
<g><path style="opacity:1" fill="#9fecef" d="M 263.5,281.5 C 262.769,286.438 261.435,291.105 259.5,295.5C 259.38,290.337 260.713,285.671 263.5,281.5 Z"/></g>
<g><path style="opacity:1" fill="#7ce1e5" d="M 399.5,279.5 C 397.949,282.563 395.782,285.229 393,287.5C 392.51,288.793 392.343,290.127 392.5,291.5C 389.393,292.553 386.393,293.886 383.5,295.5C 388.5,289.833 393.833,284.5 399.5,279.5 Z"/></g>
<g><path style="opacity:1" fill="#7ae2ea" d="M 466.5,284.5 C 460.167,291.5 453.5,298.167 446.5,304.5C 446.859,302.234 446.192,300.401 444.5,299C 445.784,298.316 446.951,298.483 448,299.5C 448.483,298.552 448.649,297.552 448.5,296.5C 449.552,296.649 450.552,296.483 451.5,296C 450.289,295.107 450.289,294.274 451.5,293.5C 452.736,292.754 454.07,292.421 455.5,292.5C 456.666,289.438 458.166,286.438 460,283.5C 461.716,284.552 462.716,283.886 463,281.5C 463.72,283.056 464.887,284.056 466.5,284.5 Z"/></g>
<g><path style="opacity:0.816" fill="#aff0f3" d="M 207.5,293.5 C 207.59,296.152 206.924,298.485 205.5,300.5C 205.41,297.848 206.076,295.515 207.5,293.5 Z"/></g>
<g><path style="opacity:0.043" fill="#bbf7f8" d="M 259.5,295.5 C 259.59,298.152 258.924,300.485 257.5,302.5C 257.41,299.848 258.076,297.515 259.5,295.5 Z"/></g>
<g><path style="opacity:0.753" fill="#adecf0" d="M 205.5,300.5 C 205.59,303.152 204.924,305.485 203.5,307.5C 203.41,304.848 204.076,302.515 205.5,300.5 Z"/></g>
<g><path style="opacity:0.608" fill="#bbf1f4" d="M 123.5,303.5 C 127.234,306.231 130.234,309.564 132.5,313.5C 128.766,310.769 125.766,307.436 123.5,303.5 Z"/></g>
<g><path style="opacity:1" fill="#94e3ea" d="M 377.5,301.5 C 377.475,304.179 376.142,305.512 373.5,305.5C 374.5,303.833 375.833,302.5 377.5,301.5 Z"/></g>
<g><path style="opacity:0.682" fill="#aeeef2" d="M 373.5,305.5 C 371.234,309.436 368.234,312.769 364.5,315.5C 366.766,311.564 369.766,308.231 373.5,305.5 Z"/></g>
<g><path style="opacity:0.816" fill="#acf0f0" d="M 203.5,307.5 C 203.59,310.152 202.924,312.485 201.5,314.5C 201.41,311.848 202.076,309.515 203.5,307.5 Z"/></g>
<g><path style="opacity:0.039" fill="#bff9fa" d="M 256.5,306.5 C 256.59,309.152 255.924,311.485 254.5,313.5C 254.41,310.848 255.076,308.515 256.5,306.5 Z"/></g>
<g><path style="opacity:0.208" fill="#cbfbfb" d="M 132.5,313.5 C 133.906,313.973 134.573,314.973 134.5,316.5C 133.094,316.027 132.427,315.027 132.5,313.5 Z"/></g>
<g><path style="opacity:0.753" fill="#adeef4" d="M 201.5,314.5 C 201.59,317.152 200.924,319.485 199.5,321.5C 199.41,318.848 200.076,316.515 201.5,314.5 Z"/></g>
<g><path style="opacity:0.82" fill="#a7ecf2" d="M 364.5,315.5 C 364.31,318.855 363.31,321.855 361.5,324.5C 361.528,321.084 362.528,318.084 364.5,315.5 Z"/></g>
<g><path style="opacity:1" fill="#82e3ea" d="M 446.5,304.5 C 432.833,318.833 418.833,332.833 404.5,346.5C 404.34,344.801 404.506,343.134 405,341.5C 405.889,342.888 406.389,342.722 406.5,341C 405.577,337.744 406.244,337.244 408.5,339.5C 409.512,336.662 411.512,335.329 414.5,335.5C 414.338,333.473 414.505,331.473 415,329.5C 416.813,330.609 417.646,329.942 417.5,327.5C 418.5,327.5 419.5,327.5 420.5,327.5C 420.5,326.5 420.5,325.5 420.5,324.5C 423.598,324.587 423.932,324.087 421.5,323C 423.055,320.535 425.055,320.035 427.5,321.5C 428.457,318.72 429.624,316.053 431,313.5C 431.414,313.957 431.914,314.291 432.5,314.5C 433.524,313.147 434.857,312.48 436.5,312.5C 437.945,310.386 439.112,307.719 440,304.5C 440.689,305.357 441.522,306.023 442.5,306.5C 442.402,305.384 442.902,304.384 444,303.5C 444.902,303.743 445.735,304.077 446.5,304.5 Z"/></g>
<g><path style="opacity:1" fill="#71dde3" d="M 254.5,313.5 C 253.233,319.63 251.567,325.63 249.5,331.5C 247.837,333.438 247.171,335.772 247.5,338.5C 246.833,339.167 246.167,339.833 245.5,340.5C 246.192,335.489 247.026,330.489 248,325.5C 250.184,322.134 251.517,318.467 252,314.5C 252.671,313.748 253.504,313.414 254.5,313.5 Z"/></g>
<g><path style="opacity:0.816" fill="#a7edf1" d="M 199.5,321.5 C 199.5,322.833 199.5,324.167 199.5,325.5C 198.833,326.5 198.167,327.5 197.5,328.5C 197.41,325.848 198.076,323.515 199.5,321.5 Z"/></g>
<g><path style="opacity:1" fill="#6edee3" d="M 134.5,317.5 C 135.404,318.209 135.737,319.209 135.5,320.5C 135.5,325.5 135.5,330.5 135.5,335.5C 134.928,340.316 132.595,343.983 128.5,346.5C 128.548,342.187 129.715,338.187 132,334.5C 132.667,335.167 133.333,335.833 134,336.5C 134.5,330.175 134.666,323.842 134.5,317.5 Z"/></g>
<g><path style="opacity:0.894" fill="#a1e8e9" d="M 135.5,320.5 C 138.167,325.5 138.167,330.5 135.5,335.5C 135.5,330.5 135.5,325.5 135.5,320.5 Z"/></g>
<g><path style="opacity:1" fill="#72dbe2" d="M 75.5,327.5 C 78.1331,328.775 80.7997,330.108 83.5,331.5C 84.8823,334.195 86.2156,336.861 87.5,339.5C 83.1667,335.833 79.1667,331.833 75.5,327.5 Z"/></g>
<g><path style="opacity:0.773" fill="#aeeff2" d="M 197.5,328.5 C 197.59,331.152 196.924,333.485 195.5,335.5C 195.41,332.848 196.076,330.515 197.5,328.5 Z"/></g>
<g><path style="opacity:0.549" fill="#b8eff5" d="M 249.5,331.5 C 249.279,334.067 248.612,336.401 247.5,338.5C 247.171,335.772 247.837,333.438 249.5,331.5 Z"/></g>
<g><path style="opacity:0.788" fill="#aeeef4" d="M 195.5,335.5 C 195.59,338.152 194.924,340.485 193.5,342.5C 193.41,339.848 194.076,337.515 195.5,335.5 Z"/></g>
<g><path style="opacity:0.306" fill="#bcf2f9" d="M 363.5,338.5 C 364.906,338.973 365.573,339.973 365.5,341.5C 364.094,341.027 363.427,340.027 363.5,338.5 Z"/></g>
<g><path style="opacity:0.604" fill="#b4f0f3" d="M 247.5,338.5 C 247.405,340.786 246.738,342.786 245.5,344.5C 245.5,343.167 245.5,341.833 245.5,340.5C 246.167,339.833 246.833,339.167 247.5,338.5 Z"/></g>
<g><path style="opacity:0.8" fill="#b1edf6" d="M 193.5,342.5 C 193.59,345.152 192.924,347.485 191.5,349.5C 191.41,346.848 192.076,344.515 193.5,342.5 Z"/></g>
<g><path style="opacity:0.078" fill="#bbf4f7" d="M 245.5,344.5 C 245.59,347.152 244.924,349.485 243.5,351.5C 243.41,348.848 244.076,346.515 245.5,344.5 Z"/></g>
<g><path style="opacity:0.875" fill="#a5e8ec" d="M 369.5,346.5 C 371.749,347.08 373.415,348.413 374.5,350.5C 372.251,349.92 370.585,348.587 369.5,346.5 Z"/></g>
<g><path style="opacity:0.937" fill="#a1e8f0" d="M 403.5,347.5 C 402.101,348.89 400.434,349.89 398.5,350.5C 399.344,348.241 401.011,347.241 403.5,347.5 Z"/></g>
<g><path style="opacity:0.341" fill="#baf4f6" d="M 95.5,347.5 C 97.0269,347.427 98.0269,348.094 98.5,349.5C 96.9731,349.573 95.9731,348.906 95.5,347.5 Z"/></g>
<g><path style="opacity:0.976" fill="#86e4e6" d="M 128.5,346.5 C 126.516,349.164 123.849,350.831 120.5,351.5C 119.5,351.5 118.5,351.5 117.5,351.5C 120.898,349.355 124.564,347.688 128.5,346.5 Z"/></g>
<g><path style="opacity:0.173" fill="#cbfafc" d="M 398.5,350.5 C 397.22,351.931 395.553,352.598 393.5,352.5C 394.78,351.069 396.447,350.402 398.5,350.5 Z"/></g>
<g><path style="opacity:0.325" fill="#b6f7f8" d="M 103.5,351.5 C 108.321,352.597 112.987,352.597 117.5,351.5C 118.5,351.5 119.5,351.5 120.5,351.5C 118.193,353.047 115.527,353.713 112.5,353.5C 109.186,353.657 106.186,352.991 103.5,351.5 Z"/></g>
<g><path style="opacity:0.765" fill="#adedf7" d="M 191.5,349.5 C 191.59,352.152 190.924,354.485 189.5,356.5C 189.41,353.848 190.076,351.515 191.5,349.5 Z"/></g>
<g><path style="opacity:1" fill="#9ae6e8" d="M 243.5,351.5 C 243.435,354.428 242.768,357.095 241.5,359.5C 240.964,356.302 241.631,353.635 243.5,351.5 Z"/></g>
<g><path style="opacity:0.518" fill="#adf3f5" d="M 377.5,351.5 C 382.463,352.254 387.463,352.587 392.5,352.5C 390.696,353.162 388.696,353.495 386.5,353.5C 383.186,353.657 380.186,352.991 377.5,351.5 Z"/></g>
<g><path style="opacity:1" fill="#90e6eb" d="M 241.5,359.5 C 237.612,374.734 233.279,389.734 228.5,404.5C 232.031,391.682 234.864,378.682 237,365.5C 238.764,363.611 240.264,361.611 241.5,359.5 Z"/></g>
<g><path style="opacity:1" fill="#89e4e5" d="M 187.5,363.5 C 187.251,366.002 186.917,368.502 186.5,371C 186.392,372.681 185.725,373.848 184.5,374.5C 184.742,370.521 185.742,366.854 187.5,363.5 Z"/></g>
<g><path style="opacity:0.757" fill="#a6f0f4" d="M 184.5,374.5 C 184.472,377.916 183.472,380.916 181.5,383.5C 181.928,380.215 182.928,377.215 184.5,374.5 Z"/></g>
<g><path style="opacity:0.8" fill="#a7f1f3" d="M 181.5,384.5 C 181.5,385.833 181.5,387.167 181.5,388.5C 180.833,389.5 180.167,390.5 179.5,391.5C 179.41,388.848 180.076,386.515 181.5,384.5 Z"/></g>
<g><path style="opacity:0.776" fill="#abeff4" d="M 179.5,391.5 C 179.59,394.152 178.924,396.485 177.5,398.5C 177.41,395.848 178.076,393.515 179.5,391.5 Z"/></g>
<g><path style="opacity:0.784" fill="#aeeff3" d="M 177.5,398.5 C 177.59,401.152 176.924,403.485 175.5,405.5C 175.41,402.848 176.076,400.515 177.5,398.5 Z"/></g>
<g><path style="opacity:0.49" fill="#b1f2f4" d="M 228.5,405.5 C 227.87,409.048 226.87,412.381 225.5,415.5C 225.5,414.167 225.5,412.833 225.5,411.5C 226.13,409.25 227.13,407.25 228.5,405.5 Z"/></g>
<g><path style="opacity:1" fill="#74dee3" d="M 181.5,388.5 C 179.474,397.594 177.807,406.761 176.5,416C 176.833,419.167 177.167,422.333 177.5,425.5C 179.648,427.559 181.315,429.892 182.5,432.5C 181.609,431.89 180.609,431.557 179.5,431.5C 176.259,428.656 174.426,424.99 174,420.5C 173.099,415.225 173.599,410.225 175.5,405.5C 176.924,403.485 177.59,401.152 177.5,398.5C 178.924,396.485 179.59,394.152 179.5,391.5C 180.167,390.5 180.833,389.5 181.5,388.5 Z"/></g>
<g><path style="opacity:0.031" fill="#bff6fa" d="M 224.5,418.5 C 224.741,420.898 224.074,422.898 222.5,424.5C 222.595,422.214 223.262,420.214 224.5,418.5 Z"/></g>
<g><path style="opacity:1" fill="#7fe0e5" d="M 225.5,411.5 C 225.5,412.833 225.5,414.167 225.5,415.5C 225.737,416.791 225.404,417.791 224.5,418.5C 223.262,420.214 222.595,422.214 222.5,424.5C 221.373,429.292 218.707,432.959 214.5,435.5C 214.643,433.738 214.309,432.071 213.5,430.5C 213.833,430.167 214.167,429.833 214.5,429.5C 216.714,431.924 217.714,431.257 217.5,427.5C 218.5,427.5 219.5,427.5 220.5,427.5C 221.173,421.745 222.84,416.412 225.5,411.5 Z"/></g>
<g><path style="opacity:0.831" fill="#a5e8ef" d="M 179.5,431.5 C 180.609,431.557 181.609,431.89 182.5,432.5C 183.5,433.833 184.5,435.167 185.5,436.5C 182.911,435.581 180.911,433.914 179.5,431.5 Z"/></g>
<g><path style="opacity:1" fill="#95e6e8" d="M 212.5,436.5 C 211.341,438.25 209.674,439.25 207.5,439.5C 207.5,438.5 207.5,437.5 207.5,436.5C 209.167,436.5 210.833,436.5 212.5,436.5 Z"/></g>
<g><path style="opacity:0.759" fill="#a4e7e8" d="M 186.5,437.5 C 193.063,439.047 199.73,439.714 206.5,439.5C 199.536,442.379 192.869,441.712 186.5,437.5 Z"/></g>
</svg>
